<svg width="112" height="42" viewBox="0 0 112 42" fill="none" xmlns="http://www.w3.org/2000/svg">
<rect width="112" height="42" fill="#0074E9"/>
<path fill-rule="evenodd" clip-rule="evenodd" d="M92.2895 21L88 16.9428L88.7137 16L94 21L88.7137 26L88 25.0572L92.2895 21Z" fill="#F3F3F3"/>
<path d="M22.128 15.262H30.038V16.2H22.128V15.262ZM20.7 20.694H32.138V21.646H20.7V20.694ZM25.81 21.324H26.972V27.106H25.81V21.324ZM29.492 15.262H30.626V16.354C30.626 17.67 30.626 19.154 30.15 21.296L29.002 21.142C29.492 19.098 29.492 17.628 29.492 16.354V15.262ZM43.2109 14.436H44.3309V27.092H43.2109V14.436ZM41.2089 19.448H43.6309V20.4H41.2089V19.448ZM40.4109 14.702H41.5169V26.462H40.4109V14.702ZM34.0269 15.892H38.8569V23.704H34.0269V15.892ZM37.7649 16.816H35.1189V22.78H37.7649V16.816ZM55.0258 14.436H56.1878V27.092H55.0258V14.436ZM55.9078 19.63H58.2598V20.61H55.9078V19.63ZM46.3878 16.452H53.8498V17.404H46.3878V16.452ZM50.1678 18.454C51.9598 18.454 53.2478 19.658 53.2478 21.366C53.2478 23.074 51.9598 24.278 50.1678 24.278C48.3898 24.278 47.0878 23.074 47.0878 21.366C47.0878 19.658 48.3898 18.454 50.1678 18.454ZM50.1678 19.42C49.0198 19.42 48.1938 20.218 48.1938 21.366C48.1938 22.5 49.0198 23.312 50.1678 23.312C51.3158 23.312 52.1418 22.5 52.1418 21.366C52.1418 20.218 51.3158 19.42 50.1678 19.42ZM49.5658 14.59H50.7278V16.886H49.5658V14.59ZM68.5487 14.436H69.7107V27.092H68.5487V14.436ZM64.8387 15.794H65.9867C65.9867 19.462 64.3347 22.668 60.1067 24.74L59.4907 23.802C63.1447 22.038 64.8387 19.35 64.8387 15.99V15.794ZM60.0647 15.794H65.3427V16.746H60.0647V15.794Z" fill="white"/>
</svg>
